<svg xmlns="http://www.w3.org/2000/svg" width="336.73" height="167.85" viewBox="-69.50 -134.02 336.73 167.85"><path d="M -12.00 -122.52 Q -36.00 -122.52 -36.00 -98.52 L -36.00 -69.09 Q -36.00 -56.34 -58.00 -54.09 Q -36.00 -51.84 -36.00 -39.09 L -36.00 -9.67 Q -36.00 14.33 -12.00 14.33" stroke="#3A1E6E" stroke-width="19" stroke-linecap="round" stroke-linejoin="round" fill="none"/><path d="M 209.73 -122.52 Q 233.73 -122.52 233.73 -98.52 L 233.73 -69.09 Q 233.73 -56.34 255.73 -54.09 Q 233.73 -51.84 233.73 -39.09 L 233.73 -9.67 Q 233.73 14.33 209.73 14.33" stroke="#3A1E6E" stroke-width="19" stroke-linecap="round" stroke-linejoin="round" fill="none"/><path transform="translate(-4.8839999999999995,0)" d="M42.476 -83.324Q50.467999999999996 -83.324 57.72 -79.846Q64.972 -76.368 69.264 -70.59599999999999V-109.52H90.28V0.0H69.264V-12.136Q65.416 -6.068 58.459999999999994 -2.368Q51.504 1.3319999999999999 42.327999999999996 1.3319999999999999Q31.968 1.3319999999999999 23.384 -3.996Q14.799999999999999 -9.324 9.841999999999999 -19.018Q4.8839999999999995 -28.712 4.8839999999999995 -41.291999999999994Q4.8839999999999995 -53.724 9.841999999999999 -63.343999999999994Q14.799999999999999 -72.964 23.384 -78.144Q31.968 -83.324 42.476 -83.324ZM47.656 -65.11999999999999Q41.884 -65.11999999999999 37.0 -62.30799999999999Q32.116 -59.495999999999995 29.082 -54.093999999999994Q26.048 -48.692 26.048 -41.291999999999994Q26.048 -33.891999999999996 29.082 -28.342Q32.116 -22.791999999999998 37.074 -19.832Q42.032 -16.872 47.656 -16.872Q53.428 -16.872 58.459999999999994 -19.758Q63.492 -22.644 66.452 -28.046Q69.41199999999999 -33.448 69.41199999999999 -40.995999999999995Q69.41199999999999 -48.544 66.452 -53.946Q63.492 -59.348 58.459999999999994 -62.233999999999995Q53.428 -65.11999999999999 47.656 -65.11999999999999ZM173.89999999999998 -19.683999999999997H132.756L125.948 0.0H104.192L141.33999999999997 -103.452H165.464L202.612 0.0H180.70799999999997ZM168.276 -36.26 153.32799999999997 -79.476 138.38 -36.26Z" fill="#3A1E6E"/></svg>