<svg xmlns="http://www.w3.org/2000/svg" width="1262.54" height="179.85" viewBox="-75.50 -140.02 1262.54 179.85"><defs><linearGradient id="braceGrad" x1="0" y1="0" x2="0" y2="1"><stop offset="0" stop-color="#7257DD"/><stop offset="1" stop-color="#5E40C9"/></linearGradient></defs><path d="M -12.00 -122.52 Q -36.00 -122.52 -36.00 -98.52 L -36.00 -69.09 Q -36.00 -56.34 -58.00 -54.09 Q -36.00 -51.84 -36.00 -39.09 L -36.00 -9.67 Q -36.00 14.33 -12.00 14.33" transform="translate(6,8)" stroke="#A78BFA" stroke-width="19" stroke-linecap="round" stroke-linejoin="round" fill="none"/><path d="M -12.00 -122.52 Q -36.00 -122.52 -36.00 -98.52 L -36.00 -69.09 Q -36.00 -56.34 -58.00 -54.09 Q -36.00 -51.84 -36.00 -39.09 L -36.00 -9.67 Q -36.00 14.33 -12.00 14.33" stroke="url(#braceGrad)" stroke-width="19" stroke-linecap="round" stroke-linejoin="round" fill="none"/><path d="M 209.73 -122.52 Q 233.73 -122.52 233.73 -98.52 L 233.73 -69.09 Q 233.73 -56.34 255.73 -54.09 Q 233.73 -51.84 233.73 -39.09 L 233.73 -9.67 Q 233.73 14.33 209.73 14.33" transform="translate(-6,8)" stroke="#A78BFA" stroke-width="19" stroke-linecap="round" stroke-linejoin="round" fill="none"/><path d="M 209.73 -122.52 Q 233.73 -122.52 233.73 -98.52 L 233.73 -69.09 Q 233.73 -56.34 255.73 -54.09 Q 233.73 -51.84 233.73 -39.09 L 233.73 -9.67 Q 233.73 14.33 209.73 14.33" stroke="url(#braceGrad)" stroke-width="19" stroke-linecap="round" stroke-linejoin="round" fill="none"/><path transform="translate(-4.8839999999999995,0)" d="M42.476 -83.324Q50.467999999999996 -83.324 57.72 -79.846Q64.972 -76.368 69.264 -70.59599999999999V-109.52H90.28V0.0H69.264V-12.136Q65.416 -6.068 58.459999999999994 -2.368Q51.504 1.3319999999999999 42.327999999999996 1.3319999999999999Q31.968 1.3319999999999999 23.384 -3.996Q14.799999999999999 -9.324 9.841999999999999 -19.018Q4.8839999999999995 -28.712 4.8839999999999995 -41.291999999999994Q4.8839999999999995 -53.724 9.841999999999999 -63.343999999999994Q14.799999999999999 -72.964 23.384 -78.144Q31.968 -83.324 42.476 -83.324ZM47.656 -65.11999999999999Q41.884 -65.11999999999999 37.0 -62.30799999999999Q32.116 -59.495999999999995 29.082 -54.093999999999994Q26.048 -48.692 26.048 -41.291999999999994Q26.048 -33.891999999999996 29.082 -28.342Q32.116 -22.791999999999998 37.074 -19.832Q42.032 -16.872 47.656 -16.872Q53.428 -16.872 58.459999999999994 -19.758Q63.492 -22.644 66.452 -28.046Q69.41199999999999 -33.448 69.41199999999999 -40.995999999999995Q69.41199999999999 -48.544 66.452 -53.946Q63.492 -59.348 58.459999999999994 -62.233999999999995Q53.428 -65.11999999999999 47.656 -65.11999999999999ZM173.89999999999998 -19.683999999999997H132.756L125.948 0.0H104.192L141.33999999999997 -103.452H165.464L202.612 0.0H180.70799999999997ZM168.276 -36.26 153.32799999999997 -79.476 138.38 -36.26Z" fill="#3A1E6E"/><rect x="297.83" y="-114.38" width="2.8" height="123.82" rx="1.4" fill="rgba(58,30,110,0.28)"/><path d="M357.058 -78.20599999999999Q361.918 -78.20599999999999 366.328 -76.09099999999998Q370.738 -73.97599999999998 373.348 -70.466V-94.13599999999998H386.128V-27.53599999999999H373.348V-34.91599999999999Q371.00800000000004 -31.225999999999992 366.778 -28.975999999999992Q362.548 -26.725999999999992 356.968 -26.725999999999992Q350.668 -26.725999999999992 345.448 -29.96599999999999Q340.228 -33.20599999999999 337.213 -39.10099999999999Q334.19800000000004 -44.995999999999995 334.19800000000004 -52.64599999999999Q334.19800000000004 -60.20599999999999 337.213 -66.05599999999998Q340.228 -71.90599999999999 345.448 -75.05599999999998Q350.668 -78.20599999999999 357.058 -78.20599999999999ZM360.208 -67.136Q356.698 -67.136 353.72799999999995 -65.42599999999999Q350.758 -63.715999999999994 348.913 -60.43099999999999Q347.068 -57.14599999999999 347.068 -52.64599999999999Q347.068 -48.14599999999999 348.913 -44.77099999999999Q350.758 -41.39599999999999 353.773 -39.59599999999999Q356.788 -37.79599999999999 360.208 -37.79599999999999Q363.718 -37.79599999999999 366.778 -39.55099999999999Q369.838 -41.30599999999999 371.63800000000003 -44.590999999999994Q373.438 -47.87599999999999 373.438 -52.465999999999994Q373.438 -57.05599999999999 371.63800000000003 -60.340999999999994Q369.838 -63.62599999999999 366.778 -65.381Q363.718 -67.136 360.208 -67.136ZM444.748 -48.68599999999999H408.298Q408.748 -43.28599999999999 412.078 -40.225999999999985Q415.408 -37.16599999999999 420.26800000000003 -37.16599999999999Q427.288 -37.16599999999999 430.258 -43.19599999999999H443.848Q441.688 -35.99599999999999 435.568 -31.36099999999999Q429.448 -26.725999999999992 420.538 -26.725999999999992Q413.338 -26.725999999999992 407.62300000000005 -29.920999999999992Q401.908 -33.11599999999999 398.713 -38.965999999999994Q395.51800000000003 -44.81599999999999 395.51800000000003 -52.465999999999994Q395.51800000000003 -60.20599999999999 398.668 -66.05599999999998Q401.818 -71.90599999999999 407.488 -75.05599999999998Q413.158 -78.20599999999999 420.538 -78.20599999999999Q427.648 -78.20599999999999 433.273 -75.14599999999999Q438.898 -72.08599999999998 442.00300000000004 -66.46099999999998Q445.108 -60.835999999999984 445.108 -53.54599999999999Q445.108 -50.84599999999999 444.748 -48.68599999999999ZM432.058 -57.14599999999999Q431.968 -62.005999999999986 428.548 -64.93099999999998Q425.128 -67.856 420.178 -67.856Q415.498 -67.856 412.303 -65.02099999999999Q409.108 -62.18599999999999 408.388 -57.14599999999999ZM476.008 -78.20599999999999Q485.27799999999996 -78.20599999999999 491.35299999999995 -73.571Q497.428 -68.93599999999999 499.498 -60.56599999999999H485.908Q484.828 -63.80599999999998 482.263 -65.65099999999998Q479.698 -67.496 475.918 -67.496Q470.518 -67.496 467.36799999999994 -63.58099999999999Q464.21799999999996 -59.66599999999998 464.21799999999996 -52.465999999999994Q464.21799999999996 -45.355999999999995 467.36799999999994 -41.44099999999999Q470.518 -37.52599999999999 475.918 -37.52599999999999Q483.568 -37.52599999999999 485.908 -44.365999999999985H499.498Q497.428 -36.26599999999999 491.308 -31.49599999999999Q485.188 -26.725999999999992 476.008 -26.725999999999992Q468.808 -26.725999999999992 463.22799999999995 -29.920999999999992Q457.64799999999997 -33.11599999999999 454.498 -38.92099999999999Q451.348 -44.725999999999985 451.348 -52.465999999999994Q451.348 -60.20599999999999 454.498 -66.011Q457.64799999999997 -71.81599999999999 463.22799999999995 -75.011Q468.808 -78.20599999999999 476.008 -78.20599999999999ZM505.918 -52.465999999999994Q505.918 -60.115999999999985 509.293 -65.96599999999998Q512.668 -71.81599999999999 518.518 -75.011Q524.368 -78.20599999999999 531.568 -78.20599999999999Q538.768 -78.20599999999999 544.6179999999999 -75.011Q550.468 -71.81599999999999 553.843 -65.96599999999998Q557.218 -60.115999999999985 557.218 -52.465999999999994Q557.218 -44.81599999999999 553.7529999999999 -38.965999999999994Q550.288 -33.11599999999999 544.393 -29.920999999999992Q538.498 -26.725999999999992 531.208 -26.725999999999992Q524.008 -26.725999999999992 518.248 -29.920999999999992Q512.488 -33.11599999999999 509.20300000000003 -38.965999999999994Q505.918 -44.81599999999999 505.918 -52.465999999999994ZM544.258 -52.465999999999994Q544.258 -59.57599999999999 540.523 -63.40099999999999Q536.788 -67.22599999999998 531.388 -67.22599999999998Q525.988 -67.22599999999998 522.3430000000001 -63.40099999999999Q518.698 -59.57599999999999 518.698 -52.465999999999994Q518.698 -45.355999999999995 522.2529999999999 -41.53099999999999Q525.808 -37.70599999999999 531.208 -37.70599999999999Q534.628 -37.70599999999999 537.643 -39.37099999999999Q540.658 -41.03599999999999 542.4580000000001 -44.365999999999985Q544.258 -47.69599999999999 544.258 -52.465999999999994ZM649.1379999999999 -56.78599999999999V-27.53599999999999H636.538V-55.07599999999999Q636.538 -60.92599999999999 633.568 -64.03099999999999Q630.598 -67.136 625.468 -67.136Q620.338 -67.136 617.323 -64.03099999999999Q614.308 -60.92599999999999 614.308 -55.07599999999999V-27.53599999999999H601.708V-55.07599999999999Q601.708 -60.92599999999999 598.738 -64.03099999999999Q595.768 -67.136 590.6379999999999 -67.136Q585.418 -67.136 582.403 -64.03099999999999Q579.3879999999999 -60.92599999999999 579.3879999999999 -55.07599999999999V-27.53599999999999H566.788V-77.39599999999999H579.3879999999999V-71.36599999999999Q581.818 -74.51599999999999 585.643 -76.31599999999999Q589.468 -78.11599999999999 594.058 -78.11599999999999Q599.908 -78.11599999999999 604.498 -75.64099999999999Q609.088 -73.16599999999998 611.608 -68.576Q614.038 -72.89599999999999 618.673 -75.50599999999999Q623.308 -78.11599999999999 628.708 -78.11599999999999Q637.8879999999999 -78.11599999999999 643.5129999999999 -72.49099999999999Q649.1379999999999 -66.86599999999999 649.1379999999999 -56.78599999999999ZM690.478 -78.20599999999999Q696.8679999999999 -78.20599999999999 702.0429999999999 -75.05599999999998Q707.218 -71.90599999999999 710.233 -66.101Q713.2479999999999 -60.29599999999999 713.2479999999999 -52.64599999999999Q713.2479999999999 -44.995999999999995 710.233 -39.10099999999999Q707.218 -33.20599999999999 702.0429999999999 -29.96599999999999Q696.8679999999999 -26.725999999999992 690.478 -26.725999999999992Q684.9879999999999 -26.725999999999992 680.8029999999999 -28.975999999999992Q676.6179999999999 -31.225999999999992 674.0079999999999 -34.64599999999999V-3.7759999999999927H661.408V-77.39599999999999H674.0079999999999V-70.19599999999998Q676.438 -73.61599999999999 680.713 -75.91099999999999Q684.9879999999999 -78.20599999999999 690.478 -78.20599999999999ZM687.148 -67.136Q683.728 -67.136 680.713 -65.381Q677.698 -63.62599999999999 675.853 -60.29599999999999Q674.0079999999999 -56.965999999999994 674.0079999999999 -52.465999999999994Q674.0079999999999 -47.965999999999994 675.853 -44.635999999999996Q677.698 -41.30599999999999 680.713 -39.55099999999999Q683.728 -37.79599999999999 687.148 -37.79599999999999Q690.658 -37.79599999999999 693.673 -39.59599999999999Q696.688 -41.39599999999999 698.5329999999999 -44.725999999999985Q700.3779999999999 -48.05599999999999 700.3779999999999 -52.64599999999999Q700.3779999999999 -57.14599999999999 698.5329999999999 -60.43099999999999Q696.688 -63.715999999999994 693.673 -65.42599999999999Q690.658 -67.136 687.148 -67.136ZM763.9780000000001 -78.20599999999999Q769.5580000000001 -78.20599999999999 773.7430000000002 -75.95599999999999Q777.9280000000001 -73.70599999999999 780.4480000000001 -70.28599999999999V-77.39599999999999H793.138V-27.53599999999999H780.4480000000001V-34.82599999999999Q778.018 -31.315999999999992 773.743 -29.020999999999994Q769.4680000000001 -26.725999999999992 763.888 -26.725999999999992Q757.5880000000001 -26.725999999999992 752.413 -29.96599999999999Q747.238 -33.20599999999999 744.2230000000001 -39.10099999999999Q741.2080000000001 -44.995999999999995 741.2080000000001 -52.64599999999999Q741.2080000000001 -60.20599999999999 744.2230000000001 -66.05599999999998Q747.238 -71.90599999999999 752.413 -75.05599999999998Q757.5880000000001 -78.20599999999999 763.9780000000001 -78.20599999999999ZM767.2180000000001 -67.136Q763.7080000000001 -67.136 760.738 -65.42599999999999Q757.768 -63.715999999999994 755.923 -60.43099999999999Q754.0780000000001 -57.14599999999999 754.0780000000001 -52.64599999999999Q754.0780000000001 -48.14599999999999 755.923 -44.77099999999999Q757.768 -41.39599999999999 760.783 -39.59599999999999Q763.798 -37.79599999999999 767.2180000000001 -37.79599999999999Q770.7280000000001 -37.79599999999999 773.788 -39.55099999999999Q776.8480000000001 -41.30599999999999 778.6480000000001 -44.590999999999994Q780.4480000000001 -47.87599999999999 780.4480000000001 -52.465999999999994Q780.4480000000001 -57.05599999999999 778.6480000000001 -60.340999999999994Q776.8480000000001 -63.62599999999999 773.788 -65.381Q770.7280000000001 -67.136 767.2180000000001 -67.136ZM827.188 -78.20599999999999Q836.458 -78.20599999999999 842.5329999999999 -73.571Q848.608 -68.93599999999999 850.678 -60.56599999999999H837.088Q836.008 -63.80599999999998 833.443 -65.65099999999998Q830.878 -67.496 827.098 -67.496Q821.698 -67.496 818.548 -63.58099999999999Q815.398 -59.66599999999998 815.398 -52.465999999999994Q815.398 -45.355999999999995 818.548 -41.44099999999999Q821.698 -37.52599999999999 827.098 -37.52599999999999Q834.748 -37.52599999999999 837.088 -44.365999999999985H850.678Q848.608 -36.26599999999999 842.4879999999999 -31.49599999999999Q836.3679999999999 -26.725999999999992 827.188 -26.725999999999992Q819.9879999999999 -26.725999999999992 814.4079999999999 -29.920999999999992Q808.828 -33.11599999999999 805.678 -38.92099999999999Q802.528 -44.725999999999985 802.528 -52.465999999999994Q802.528 -60.20599999999999 805.678 -66.011Q808.828 -71.81599999999999 814.4079999999999 -75.011Q819.9879999999999 -78.20599999999999 827.188 -78.20599999999999ZM879.778 -78.20599999999999Q885.3580000000001 -78.20599999999999 889.5430000000001 -75.95599999999999Q893.7280000000001 -73.70599999999999 896.248 -70.28599999999999V-77.39599999999999H908.938V-27.53599999999999H896.248V-34.82599999999999Q893.818 -31.315999999999992 889.543 -29.020999999999994Q885.268 -26.725999999999992 879.688 -26.725999999999992Q873.388 -26.725999999999992 868.213 -29.96599999999999Q863.038 -33.20599999999999 860.023 -39.10099999999999Q857.008 -44.995999999999995 857.008 -52.64599999999999Q857.008 -60.20599999999999 860.023 -66.05599999999998Q863.038 -71.90599999999999 868.213 -75.05599999999998Q873.388 -78.20599999999999 879.778 -78.20599999999999ZM883.018 -67.136Q879.508 -67.136 876.538 -65.42599999999999Q873.568 -63.715999999999994 871.723 -60.43099999999999Q869.878 -57.14599999999999 869.878 -52.64599999999999Q869.878 -48.14599999999999 871.723 -44.77099999999999Q873.568 -41.39599999999999 876.583 -39.59599999999999Q879.598 -37.79599999999999 883.018 -37.79599999999999Q886.528 -37.79599999999999 889.588 -39.55099999999999Q892.648 -41.30599999999999 894.4480000000001 -44.590999999999994Q896.248 -47.87599999999999 896.248 -52.465999999999994Q896.248 -57.05599999999999 894.4480000000001 -60.340999999999994Q892.648 -63.62599999999999 889.588 -65.381Q886.528 -67.136 883.018 -67.136ZM941.188 -78.20599999999999Q946.048 -78.20599999999999 950.458 -76.09099999999998Q954.8679999999999 -73.97599999999998 957.478 -70.466V-94.13599999999998H970.2579999999999V-27.53599999999999H957.478V-34.91599999999999Q955.1379999999999 -31.225999999999992 950.9079999999999 -28.975999999999992Q946.678 -26.725999999999992 941.098 -26.725999999999992Q934.798 -26.725999999999992 929.578 -29.96599999999999Q924.358 -33.20599999999999 921.343 -39.10099999999999Q918.328 -44.995999999999995 918.328 -52.64599999999999Q918.328 -60.20599999999999 921.343 -66.05599999999998Q924.358 -71.90599999999999 929.578 -75.05599999999998Q934.798 -78.20599999999999 941.188 -78.20599999999999ZM944.338 -67.136Q940.828 -67.136 937.858 -65.42599999999999Q934.8879999999999 -63.715999999999994 933.0429999999999 -60.43099999999999Q931.198 -57.14599999999999 931.198 -52.64599999999999Q931.198 -48.14599999999999 933.0429999999999 -44.77099999999999Q934.8879999999999 -41.39599999999999 937.9029999999999 -39.59599999999999Q940.9179999999999 -37.79599999999999 944.338 -37.79599999999999Q947.848 -37.79599999999999 950.9079999999999 -39.55099999999999Q953.968 -41.30599999999999 955.768 -44.590999999999994Q957.568 -47.87599999999999 957.568 -52.465999999999994Q957.568 -57.05599999999999 955.768 -60.340999999999994Q953.968 -63.62599999999999 950.9079999999999 -65.381Q947.848 -67.136 944.338 -67.136ZM1028.878 -48.68599999999999H992.4279999999999Q992.8779999999999 -43.28599999999999 996.2079999999999 -40.225999999999985Q999.5379999999999 -37.16599999999999 1004.3979999999999 -37.16599999999999Q1011.4179999999999 -37.16599999999999 1014.3879999999999 -43.19599999999999H1027.9779999999998Q1025.818 -35.99599999999999 1019.6979999999999 -31.36099999999999Q1013.5779999999999 -26.725999999999992 1004.6679999999999 -26.725999999999992Q997.4679999999998 -26.725999999999992 991.7529999999999 -29.920999999999992Q986.0379999999999 -33.11599999999999 982.8429999999998 -38.965999999999994Q979.6479999999999 -44.81599999999999 979.6479999999999 -52.465999999999994Q979.6479999999999 -60.20599999999999 982.7979999999999 -66.05599999999998Q985.9479999999999 -71.90599999999999 991.6179999999999 -75.05599999999998Q997.2879999999999 -78.20599999999999 1004.6679999999999 -78.20599999999999Q1011.7779999999999 -78.20599999999999 1017.4029999999999 -75.14599999999999Q1023.0279999999999 -72.08599999999998 1026.1329999999998 -66.46099999999998Q1029.2379999999998 -60.835999999999984 1029.2379999999998 -53.54599999999999Q1029.2379999999998 -50.84599999999999 1028.878 -48.68599999999999ZM1016.1879999999999 -57.14599999999999Q1016.0979999999998 -62.005999999999986 1012.6779999999999 -64.93099999999998Q1009.2579999999999 -67.856 1004.3079999999999 -67.856Q999.6279999999999 -67.856 996.4329999999999 -65.02099999999999Q993.2379999999998 -62.18599999999999 992.5179999999999 -57.14599999999999ZM1121.0679999999998 -56.78599999999999V-27.53599999999999H1108.4679999999998V-55.07599999999999Q1108.4679999999998 -60.92599999999999 1105.4979999999998 -64.03099999999999Q1102.5279999999998 -67.136 1097.398 -67.136Q1092.2679999999998 -67.136 1089.2529999999997 -64.03099999999999Q1086.2379999999998 -60.92599999999999 1086.2379999999998 -55.07599999999999V-27.53599999999999H1073.638V-55.07599999999999Q1073.638 -60.92599999999999 1070.668 -64.03099999999999Q1067.6979999999999 -67.136 1062.5679999999998 -67.136Q1057.3479999999997 -67.136 1054.3329999999996 -64.03099999999999Q1051.3179999999998 -60.92599999999999 1051.3179999999998 -55.07599999999999V-27.53599999999999H1038.7179999999998V-77.39599999999999H1051.3179999999998V-71.36599999999999Q1053.7479999999998 -74.51599999999999 1057.5729999999999 -76.31599999999999Q1061.398 -78.11599999999999 1065.9879999999998 -78.11599999999999Q1071.8379999999997 -78.11599999999999 1076.4279999999999 -75.64099999999999Q1081.0179999999998 -73.16599999999998 1083.5379999999998 -68.576Q1085.9679999999998 -72.89599999999999 1090.6029999999998 -75.50599999999999Q1095.2379999999998 -78.11599999999999 1100.638 -78.11599999999999Q1109.8179999999998 -78.11599999999999 1115.4429999999998 -72.49099999999999Q1121.0679999999998 -66.86599999999999 1121.0679999999998 -56.78599999999999ZM1181.0379999999998 -77.39599999999999 1150.1679999999997 -3.9559999999999924H1136.7579999999998L1147.5579999999998 -28.795999999999992L1127.5779999999997 -77.39599999999999H1141.7079999999996L1154.5779999999997 -42.56599999999999L1167.6279999999997 -77.39599999999999Z" fill="#3A1E6E"/></svg>