<svg xmlns="http://www.w3.org/2000/svg" width="359.69" height="358.99" viewBox="-80.98 -142.02 359.69 358.99"><path d="M -12.00 -122.52 Q -36.00 -122.52 -36.00 -98.52 L -36.00 -69.09 Q -36.00 -56.34 -58.00 -54.09 Q -36.00 -51.84 -36.00 -39.09 L -36.00 -9.67 Q -36.00 14.33 -12.00 14.33" transform="translate(6,8)" stroke="#A78BFA" stroke-width="19" stroke-linecap="round" stroke-linejoin="round" fill="none"/><path d="M -12.00 -122.52 Q -36.00 -122.52 -36.00 -98.52 L -36.00 -69.09 Q -36.00 -56.34 -58.00 -54.09 Q -36.00 -51.84 -36.00 -39.09 L -36.00 -9.67 Q -36.00 14.33 -12.00 14.33" stroke="#FFFFFF" stroke-width="19" stroke-linecap="round" stroke-linejoin="round" fill="none"/><path d="M 209.73 -122.52 Q 233.73 -122.52 233.73 -98.52 L 233.73 -69.09 Q 233.73 -56.34 255.73 -54.09 Q 233.73 -51.84 233.73 -39.09 L 233.73 -9.67 Q 233.73 14.33 209.73 14.33" transform="translate(-6,8)" stroke="#A78BFA" stroke-width="19" stroke-linecap="round" stroke-linejoin="round" fill="none"/><path d="M 209.73 -122.52 Q 233.73 -122.52 233.73 -98.52 L 233.73 -69.09 Q 233.73 -56.34 255.73 -54.09 Q 233.73 -51.84 233.73 -39.09 L 233.73 -9.67 Q 233.73 14.33 209.73 14.33" stroke="#FFFFFF" stroke-width="19" stroke-linecap="round" stroke-linejoin="round" fill="none"/><path transform="translate(-4.8839999999999995,0)" d="M42.476 -83.324Q50.467999999999996 -83.324 57.72 -79.846Q64.972 -76.368 69.264 -70.59599999999999V-109.52H90.28V0.0H69.264V-12.136Q65.416 -6.068 58.459999999999994 -2.368Q51.504 1.3319999999999999 42.327999999999996 1.3319999999999999Q31.968 1.3319999999999999 23.384 -3.996Q14.799999999999999 -9.324 9.841999999999999 -19.018Q4.8839999999999995 -28.712 4.8839999999999995 -41.291999999999994Q4.8839999999999995 -53.724 9.841999999999999 -63.343999999999994Q14.799999999999999 -72.964 23.384 -78.144Q31.968 -83.324 42.476 -83.324ZM47.656 -65.11999999999999Q41.884 -65.11999999999999 37.0 -62.30799999999999Q32.116 -59.495999999999995 29.082 -54.093999999999994Q26.048 -48.692 26.048 -41.291999999999994Q26.048 -33.891999999999996 29.082 -28.342Q32.116 -22.791999999999998 37.074 -19.832Q42.032 -16.872 47.656 -16.872Q53.428 -16.872 58.459999999999994 -19.758Q63.492 -22.644 66.452 -28.046Q69.41199999999999 -33.448 69.41199999999999 -40.995999999999995Q69.41199999999999 -48.544 66.452 -53.946Q63.492 -59.348 58.459999999999994 -62.233999999999995Q53.428 -65.11999999999999 47.656 -65.11999999999999ZM173.89999999999998 -19.683999999999997H132.756L125.948 0.0H104.192L141.33999999999997 -103.452H165.464L202.612 0.0H180.70799999999997ZM168.276 -36.26 153.32799999999997 -79.476 138.38 -36.26Z" fill="#FFFFFF"/><path transform="translate(-51.52,116.43)" d="M20.090000000000003 -39.410000000000004Q23.87 -39.410000000000004 27.300000000000004 -37.765Q30.730000000000004 -36.120000000000005 32.760000000000005 -33.39V-51.800000000000004H42.7V0.0H32.760000000000005V-5.74Q30.94 -2.87 27.650000000000002 -1.12Q24.360000000000003 0.6300000000000001 20.020000000000003 0.6300000000000001Q15.120000000000001 0.6300000000000001 11.06 -1.8900000000000001Q7.000000000000001 -4.41 4.655 -8.995000000000001Q2.31 -13.580000000000002 2.31 -19.53Q2.31 -25.410000000000004 4.655 -29.960000000000004Q7.000000000000001 -34.510000000000005 11.06 -36.96000000000001Q15.120000000000001 -39.410000000000004 20.090000000000003 -39.410000000000004ZM22.540000000000003 -30.800000000000004Q19.810000000000002 -30.800000000000004 17.5 -29.470000000000006Q15.190000000000001 -28.140000000000004 13.755 -25.585Q12.32 -23.03 12.32 -19.53Q12.32 -16.03 13.755 -13.405000000000001Q15.190000000000001 -10.780000000000001 17.535000000000004 -9.38Q19.880000000000003 -7.98 22.540000000000003 -7.98Q25.270000000000003 -7.98 27.650000000000002 -9.345Q30.03 -10.71 31.430000000000003 -13.265Q32.830000000000005 -15.820000000000002 32.830000000000005 -19.39Q32.830000000000005 -22.96 31.430000000000003 -25.515Q30.03 -28.070000000000004 27.650000000000002 -29.435000000000002Q25.270000000000003 -30.800000000000004 22.540000000000003 -30.800000000000004ZM88.56 -16.450000000000003H60.21000000000001Q60.56000000000001 -12.250000000000002 63.150000000000006 -9.870000000000001Q65.74000000000001 -7.490000000000001 69.52000000000001 -7.490000000000001Q74.98000000000002 -7.490000000000001 77.29 -12.180000000000001H87.86000000000001Q86.18 -6.580000000000001 81.42000000000002 -2.9750000000000005Q76.66000000000001 0.6300000000000001 69.73000000000002 0.6300000000000001Q64.13000000000001 0.6300000000000001 59.68500000000001 -1.8550000000000004Q55.24000000000001 -4.340000000000001 52.75500000000001 -8.89Q50.27000000000001 -13.440000000000001 50.27000000000001 -19.39Q50.27000000000001 -25.410000000000004 52.72000000000001 -29.960000000000004Q55.17000000000001 -34.510000000000005 59.58000000000001 -36.96000000000001Q63.99000000000001 -39.410000000000004 69.73000000000002 -39.410000000000004Q75.26000000000002 -39.410000000000004 79.63500000000002 -37.03Q84.01000000000002 -34.650000000000006 86.42500000000001 -30.275000000000006Q88.84 -25.900000000000002 88.84 -20.23Q88.84 -18.130000000000003 88.56 -16.450000000000003ZM78.69000000000001 -23.03Q78.62 -26.810000000000002 75.96000000000001 -29.085Q73.30000000000001 -31.360000000000003 69.45000000000002 -31.360000000000003Q65.81 -31.360000000000003 63.325 -29.155Q60.84000000000001 -26.950000000000003 60.28000000000001 -23.03ZM113.14000000000001 -39.410000000000004Q120.35000000000001 -39.410000000000004 125.07500000000002 -35.80500000000001Q129.8 -32.2 131.41000000000003 -25.69H120.84Q120.0 -28.210000000000004 118.005 -29.645000000000003Q116.01 -31.080000000000002 113.07000000000001 -31.080000000000002Q108.87 -31.080000000000002 106.42 -28.035000000000004Q103.97 -24.990000000000002 103.97 -19.39Q103.97 -13.860000000000001 106.42 -10.815000000000001Q108.87 -7.7700000000000005 113.07000000000001 -7.7700000000000005Q119.02000000000001 -7.7700000000000005 120.84 -13.090000000000002H131.41000000000003Q129.8 -6.790000000000001 125.04 -3.0800000000000005Q120.28 0.6300000000000001 113.14000000000001 0.6300000000000001Q107.54 0.6300000000000001 103.20000000000002 -1.8550000000000004Q98.86000000000001 -4.340000000000001 96.41000000000001 -8.855Q93.96000000000001 -13.370000000000001 93.96000000000001 -19.39Q93.96000000000001 -25.410000000000004 96.41000000000001 -29.925000000000004Q98.86000000000001 -34.440000000000005 103.20000000000002 -36.925000000000004Q107.54 -39.410000000000004 113.14000000000001 -39.410000000000004ZM136.67000000000002 -19.39Q136.67000000000002 -25.340000000000003 139.29500000000002 -29.890000000000004Q141.92000000000002 -34.440000000000005 146.47000000000003 -36.925000000000004Q151.02 -39.410000000000004 156.62000000000003 -39.410000000000004Q162.22000000000003 -39.410000000000004 166.77000000000004 -36.925000000000004Q171.32000000000002 -34.440000000000005 173.94500000000002 -29.890000000000004Q176.57000000000002 -25.340000000000003 176.57000000000002 -19.39Q176.57000000000002 -13.440000000000001 173.875 -8.89Q171.18 -4.340000000000001 166.59500000000003 -1.8550000000000004Q162.01000000000002 0.6300000000000001 156.34000000000003 0.6300000000000001Q150.74 0.6300000000000001 146.26000000000002 -1.8550000000000004Q141.78000000000003 -4.340000000000001 139.22500000000002 -8.89Q136.67000000000002 -13.440000000000001 136.67000000000002 -19.39ZM166.49 -19.39Q166.49 -24.92 163.58500000000004 -27.895000000000003Q160.68000000000004 -30.870000000000005 156.48000000000002 -30.870000000000005Q152.28000000000003 -30.870000000000005 149.44500000000002 -27.895000000000003Q146.61 -24.92 146.61 -19.39Q146.61 -13.860000000000001 149.375 -10.885000000000002Q152.14000000000001 -7.910000000000001 156.34000000000003 -7.910000000000001Q159.00000000000003 -7.910000000000001 161.34500000000003 -9.205000000000002Q163.69000000000003 -10.500000000000002 165.09000000000003 -13.090000000000002Q166.49 -15.680000000000001 166.49 -19.39ZM248.33000000000004 -22.750000000000004V0.0H238.53000000000003V-21.42Q238.53000000000003 -25.970000000000002 236.22000000000003 -28.385000000000005Q233.91000000000003 -30.800000000000004 229.92000000000002 -30.800000000000004Q225.93 -30.800000000000004 223.585 -28.385000000000005Q221.24 -25.970000000000002 221.24 -21.42V0.0H211.44000000000003V-21.42Q211.44000000000003 -25.970000000000002 209.13000000000002 -28.385000000000005Q206.82000000000002 -30.800000000000004 202.83 -30.800000000000004Q198.77 -30.800000000000004 196.425 -28.385000000000005Q194.08 -25.970000000000002 194.08 -21.42V0.0H184.28000000000003V-38.78H194.08V-34.09Q195.97000000000003 -36.540000000000006 198.94500000000002 -37.940000000000005Q201.92000000000002 -39.34 205.49 -39.34Q210.04000000000002 -39.34 213.61 -37.415000000000006Q217.18 -35.49 219.14000000000001 -31.92Q221.03000000000003 -35.28 224.63500000000002 -37.31Q228.24 -39.34 232.44000000000003 -39.34Q239.58 -39.34 243.95500000000004 -34.965Q248.33000000000004 -30.590000000000003 248.33000000000004 -22.750000000000004ZM280.75000000000006 -39.410000000000004Q285.72 -39.410000000000004 289.745 -36.96000000000001Q293.77000000000004 -34.510000000000005 296.115 -29.995000000000005Q298.46000000000004 -25.480000000000004 298.46000000000004 -19.53Q298.46000000000004 -13.580000000000002 296.115 -8.995000000000001Q293.77000000000004 -4.41 289.745 -1.8900000000000001Q285.72 0.6300000000000001 280.75000000000006 0.6300000000000001Q276.48 0.6300000000000001 273.225 -1.12Q269.97 -2.87 267.94000000000005 -5.53V18.48H258.14000000000004V-38.78H267.94000000000005V-33.18Q269.83000000000004 -35.84 273.15500000000003 -37.625Q276.48 -39.410000000000004 280.75000000000006 -39.410000000000004ZM278.16 -30.800000000000004Q275.50000000000006 -30.800000000000004 273.1550000000001 -29.435000000000002Q270.81000000000006 -28.070000000000004 269.37500000000006 -25.480000000000004Q267.94000000000005 -22.89 267.94000000000005 -19.39Q267.94000000000005 -15.890000000000002 269.37500000000006 -13.3Q270.81000000000006 -10.71 273.1550000000001 -9.345Q275.50000000000006 -7.98 278.16 -7.98Q280.89000000000004 -7.98 283.235 -9.38Q285.58000000000004 -10.780000000000001 287.01500000000004 -13.370000000000001Q288.45000000000005 -15.96 288.45000000000005 -19.53Q288.45000000000005 -23.03 287.01500000000004 -25.585Q285.58000000000004 -28.140000000000004 283.235 -29.470000000000006Q280.89000000000004 -30.800000000000004 278.16 -30.800000000000004Z" fill="#FFFFFF"/><path transform="translate(-75.29,190.63)" d="M20.020000000000003 -39.410000000000004Q24.360000000000003 -39.410000000000004 27.615000000000002 -37.660000000000004Q30.870000000000005 -35.910000000000004 32.830000000000005 -33.25V-38.78H42.7V0.0H32.830000000000005V-5.670000000000001Q30.94 -2.9400000000000004 27.615000000000002 -1.1550000000000002Q24.290000000000003 0.6300000000000001 19.950000000000003 0.6300000000000001Q15.05 0.6300000000000001 11.025 -1.8900000000000001Q7.000000000000001 -4.41 4.655 -8.995000000000001Q2.31 -13.580000000000002 2.31 -19.53Q2.31 -25.410000000000004 4.655 -29.960000000000004Q7.000000000000001 -34.510000000000005 11.025 -36.96000000000001Q15.05 -39.410000000000004 20.020000000000003 -39.410000000000004ZM22.540000000000003 -30.800000000000004Q19.810000000000002 -30.800000000000004 17.5 -29.470000000000006Q15.190000000000001 -28.140000000000004 13.755 -25.585Q12.32 -23.03 12.32 -19.53Q12.32 -16.03 13.755 -13.405000000000001Q15.190000000000001 -10.780000000000001 17.535000000000004 -9.38Q19.880000000000003 -7.98 22.540000000000003 -7.98Q25.270000000000003 -7.98 27.650000000000002 -9.345Q30.03 -10.71 31.430000000000003 -13.265Q32.830000000000005 -15.820000000000002 32.830000000000005 -19.39Q32.830000000000005 -22.96 31.430000000000003 -25.515Q30.03 -28.070000000000004 27.650000000000002 -29.435000000000002Q25.270000000000003 -30.800000000000004 22.540000000000003 -30.800000000000004ZM69.45000000000002 -39.410000000000004Q76.66000000000001 -39.410000000000004 81.38500000000002 -35.80500000000001Q86.11000000000001 -32.2 87.72000000000001 -25.69H77.15Q76.31 -28.210000000000004 74.315 -29.645000000000003Q72.32000000000001 -31.080000000000002 69.38000000000001 -31.080000000000002Q65.18 -31.080000000000002 62.730000000000004 -28.035000000000004Q60.28000000000001 -24.990000000000002 60.28000000000001 -19.39Q60.28000000000001 -13.860000000000001 62.730000000000004 -10.815000000000001Q65.18 -7.7700000000000005 69.38000000000001 -7.7700000000000005Q75.33000000000001 -7.7700000000000005 77.15 -13.090000000000002H87.72000000000001Q86.11000000000001 -6.790000000000001 81.35000000000001 -3.0800000000000005Q76.59 0.6300000000000001 69.45000000000002 0.6300000000000001Q63.85000000000001 0.6300000000000001 59.510000000000005 -1.8550000000000004Q55.17000000000001 -4.340000000000001 52.72000000000001 -8.855Q50.27000000000001 -13.370000000000001 50.27000000000001 -19.39Q50.27000000000001 -25.410000000000004 52.72000000000001 -29.925000000000004Q55.17000000000001 -34.440000000000005 59.510000000000005 -36.925000000000004Q63.85000000000001 -39.410000000000004 69.45000000000002 -39.410000000000004ZM110.62 -39.410000000000004Q114.96000000000001 -39.410000000000004 118.215 -37.660000000000004Q121.47000000000001 -35.910000000000004 123.43 -33.25V-38.78H133.3V0.0H123.43V-5.670000000000001Q121.54 -2.9400000000000004 118.215 -1.1550000000000002Q114.89000000000001 0.6300000000000001 110.55000000000001 0.6300000000000001Q105.65 0.6300000000000001 101.625 -1.8900000000000001Q97.60000000000001 -4.41 95.25500000000001 -8.995000000000001Q92.91000000000001 -13.580000000000002 92.91000000000001 -19.53Q92.91000000000001 -25.410000000000004 95.25500000000001 -29.960000000000004Q97.60000000000001 -34.510000000000005 101.625 -36.96000000000001Q105.65 -39.410000000000004 110.62 -39.410000000000004ZM113.14000000000001 -30.800000000000004Q110.41000000000001 -30.800000000000004 108.10000000000001 -29.470000000000006Q105.79 -28.140000000000004 104.35500000000002 -25.585Q102.92000000000002 -23.03 102.92000000000002 -19.53Q102.92000000000002 -16.03 104.35500000000002 -13.405000000000001Q105.79 -10.780000000000001 108.13500000000002 -9.38Q110.48000000000002 -7.98 113.14000000000001 -7.98Q115.87 -7.98 118.25 -9.345Q120.63000000000001 -10.71 122.03 -13.265Q123.43 -15.820000000000002 123.43 -19.39Q123.43 -22.96 122.03 -25.515Q120.63000000000001 -28.070000000000004 118.25 -29.435000000000002Q115.87 -30.800000000000004 113.14000000000001 -30.800000000000004ZM158.65 -39.410000000000004Q162.43 -39.410000000000004 165.86 -37.765Q169.29000000000002 -36.120000000000005 171.32 -33.39V-51.800000000000004H181.26V0.0H171.32V-5.74Q169.5 -2.87 166.21 -1.12Q162.92000000000002 0.6300000000000001 158.58 0.6300000000000001Q153.68 0.6300000000000001 149.62 -1.8900000000000001Q145.56 -4.41 143.215 -8.995000000000001Q140.87 -13.580000000000002 140.87 -19.53Q140.87 -25.410000000000004 143.215 -29.960000000000004Q145.56 -34.510000000000005 149.62 -36.96000000000001Q153.68 -39.410000000000004 158.65 -39.410000000000004ZM161.1 -30.800000000000004Q158.37 -30.800000000000004 156.06 -29.470000000000006Q153.75 -28.140000000000004 152.315 -25.585Q150.88 -23.03 150.88 -19.53Q150.88 -16.03 152.315 -13.405000000000001Q153.75 -10.780000000000001 156.095 -9.38Q158.44 -7.98 161.1 -7.98Q163.83 -7.98 166.21 -9.345Q168.59 -10.71 169.99 -13.265Q171.39000000000001 -15.820000000000002 171.39000000000001 -19.39Q171.39000000000001 -22.96 169.99 -25.515Q168.59 -28.070000000000004 166.21 -29.435000000000002Q163.83 -30.800000000000004 161.1 -30.800000000000004ZM227.12 -16.450000000000003H198.77Q199.12 -12.250000000000002 201.71 -9.870000000000001Q204.3 -7.490000000000001 208.08 -7.490000000000001Q213.54000000000002 -7.490000000000001 215.85000000000002 -12.180000000000001H226.42000000000002Q224.74 -6.580000000000001 219.98000000000002 -2.9750000000000005Q215.22000000000003 0.6300000000000001 208.29000000000002 0.6300000000000001Q202.69 0.6300000000000001 198.245 -1.8550000000000004Q193.8 -4.340000000000001 191.315 -8.89Q188.83 -13.440000000000001 188.83 -19.39Q188.83 -25.410000000000004 191.28000000000003 -29.960000000000004Q193.73000000000002 -34.510000000000005 198.14000000000001 -36.96000000000001Q202.55 -39.410000000000004 208.29000000000002 -39.410000000000004Q213.82000000000002 -39.410000000000004 218.19500000000002 -37.03Q222.57000000000002 -34.650000000000006 224.985 -30.275000000000006Q227.4 -25.900000000000002 227.4 -20.23Q227.4 -18.130000000000003 227.12 -16.450000000000003ZM217.25 -23.03Q217.18 -26.810000000000002 214.52 -29.085Q211.86 -31.360000000000003 208.01000000000002 -31.360000000000003Q204.37 -31.360000000000003 201.885 -29.155Q199.4 -26.950000000000003 198.84 -23.03ZM299.09000000000003 -22.750000000000004V0.0H289.29V-21.42Q289.29 -25.970000000000002 286.98 -28.385000000000005Q284.67 -30.800000000000004 280.68 -30.800000000000004Q276.69 -30.800000000000004 274.345 -28.385000000000005Q272.0 -25.970000000000002 272.0 -21.42V0.0H262.2V-21.42Q262.2 -25.970000000000002 259.89 -28.385000000000005Q257.58 -30.800000000000004 253.59 -30.800000000000004Q249.53 -30.800000000000004 247.185 -28.385000000000005Q244.84 -25.970000000000002 244.84 -21.42V0.0H235.04000000000002V-38.78H244.84V-34.09Q246.73000000000002 -36.540000000000006 249.705 -37.940000000000005Q252.68 -39.34 256.25 -39.34Q260.8 -39.34 264.37 -37.415000000000006Q267.94 -35.49 269.90000000000003 -31.92Q271.79 -35.28 275.395 -37.31Q279.0 -39.34 283.2 -39.34Q290.34000000000003 -39.34 294.71500000000003 -34.965Q299.09000000000003 -30.590000000000003 299.09000000000003 -22.750000000000004ZM346.00000000000006 -38.78 321.99000000000007 18.340000000000003H311.56000000000006L319.96000000000004 -0.9800000000000001L304.4200000000001 -38.78H315.41L325.4200000000001 -11.690000000000001L335.57000000000005 -38.78Z" fill="#FFFFFF"/></svg>