<svg xmlns="http://www.w3.org/2000/svg" width="1200" height="630" viewBox="0 0 1200 630"><defs><linearGradient id="ogbg" x1="0" y1="0" x2="0.6" y2="1"><stop offset="0" stop-color="#241544"/><stop offset="1" stop-color="#16101F"/></linearGradient></defs><rect width="1200" height="630" fill="url(#ogbg)"/><svg x="228.0" y="234.0" width="744.0" height="106.0" viewBox="-75.50 -140.02 1262.54 179.85" overflow="visible"><path d="M -12.00 -122.52 Q -36.00 -122.52 -36.00 -98.52 L -36.00 -69.09 Q -36.00 -56.34 -58.00 -54.09 Q -36.00 -51.84 -36.00 -39.09 L -36.00 -9.67 Q -36.00 14.33 -12.00 14.33" transform="translate(6,8)" stroke="#A78BFA" stroke-width="19" stroke-linecap="round" stroke-linejoin="round" fill="none"/><path d="M -12.00 -122.52 Q -36.00 -122.52 -36.00 -98.52 L -36.00 -69.09 Q -36.00 -56.34 -58.00 -54.09 Q -36.00 -51.84 -36.00 -39.09 L -36.00 -9.67 Q -36.00 14.33 -12.00 14.33" stroke="#FFFFFF" stroke-width="19" stroke-linecap="round" stroke-linejoin="round" fill="none"/><path d="M 209.73 -122.52 Q 233.73 -122.52 233.73 -98.52 L 233.73 -69.09 Q 233.73 -56.34 255.73 -54.09 Q 233.73 -51.84 233.73 -39.09 L 233.73 -9.67 Q 233.73 14.33 209.73 14.33" transform="translate(-6,8)" stroke="#A78BFA" stroke-width="19" stroke-linecap="round" stroke-linejoin="round" fill="none"/><path d="M 209.73 -122.52 Q 233.73 -122.52 233.73 -98.52 L 233.73 -69.09 Q 233.73 -56.34 255.73 -54.09 Q 233.73 -51.84 233.73 -39.09 L 233.73 -9.67 Q 233.73 14.33 209.73 14.33" stroke="#FFFFFF" stroke-width="19" stroke-linecap="round" stroke-linejoin="round" fill="none"/><path transform="translate(-4.8839999999999995,0)" d="M42.476 -83.324Q50.467999999999996 -83.324 57.72 -79.846Q64.972 -76.368 69.264 -70.59599999999999V-109.52H90.28V0.0H69.264V-12.136Q65.416 -6.068 58.459999999999994 -2.368Q51.504 1.3319999999999999 42.327999999999996 1.3319999999999999Q31.968 1.3319999999999999 23.384 -3.996Q14.799999999999999 -9.324 9.841999999999999 -19.018Q4.8839999999999995 -28.712 4.8839999999999995 -41.291999999999994Q4.8839999999999995 -53.724 9.841999999999999 -63.343999999999994Q14.799999999999999 -72.964 23.384 -78.144Q31.968 -83.324 42.476 -83.324ZM47.656 -65.11999999999999Q41.884 -65.11999999999999 37.0 -62.30799999999999Q32.116 -59.495999999999995 29.082 -54.093999999999994Q26.048 -48.692 26.048 -41.291999999999994Q26.048 -33.891999999999996 29.082 -28.342Q32.116 -22.791999999999998 37.074 -19.832Q42.032 -16.872 47.656 -16.872Q53.428 -16.872 58.459999999999994 -19.758Q63.492 -22.644 66.452 -28.046Q69.41199999999999 -33.448 69.41199999999999 -40.995999999999995Q69.41199999999999 -48.544 66.452 -53.946Q63.492 -59.348 58.459999999999994 -62.233999999999995Q53.428 -65.11999999999999 47.656 -65.11999999999999ZM173.89999999999998 -19.683999999999997H132.756L125.948 0.0H104.192L141.33999999999997 -103.452H165.464L202.612 0.0H180.70799999999997ZM168.276 -36.26 153.32799999999997 -79.476 138.38 -36.26Z" fill="#FFFFFF"/><rect x="297.83" y="-114.38" width="2.8" height="123.82" rx="1.4" fill="rgba(255,255,255,0.30)"/><path d="M357.058 -78.20599999999999Q361.918 -78.20599999999999 366.328 -76.09099999999998Q370.738 -73.97599999999998 373.348 -70.466V-94.13599999999998H386.128V-27.53599999999999H373.348V-34.91599999999999Q371.00800000000004 -31.225999999999992 366.778 -28.975999999999992Q362.548 -26.725999999999992 356.968 -26.725999999999992Q350.668 -26.725999999999992 345.448 -29.96599999999999Q340.228 -33.20599999999999 337.213 -39.10099999999999Q334.19800000000004 -44.995999999999995 334.19800000000004 -52.64599999999999Q334.19800000000004 -60.20599999999999 337.213 -66.05599999999998Q340.228 -71.90599999999999 345.448 -75.05599999999998Q350.668 -78.20599999999999 357.058 -78.20599999999999ZM360.208 -67.136Q356.698 -67.136 353.72799999999995 -65.42599999999999Q350.758 -63.715999999999994 348.913 -60.43099999999999Q347.068 -57.14599999999999 347.068 -52.64599999999999Q347.068 -48.14599999999999 348.913 -44.77099999999999Q350.758 -41.39599999999999 353.773 -39.59599999999999Q356.788 -37.79599999999999 360.208 -37.79599999999999Q363.718 -37.79599999999999 366.778 -39.55099999999999Q369.838 -41.30599999999999 371.63800000000003 -44.590999999999994Q373.438 -47.87599999999999 373.438 -52.465999999999994Q373.438 -57.05599999999999 371.63800000000003 -60.340999999999994Q369.838 -63.62599999999999 366.778 -65.381Q363.718 -67.136 360.208 -67.136ZM444.748 -48.68599999999999H408.298Q408.748 -43.28599999999999 412.078 -40.225999999999985Q415.408 -37.16599999999999 420.26800000000003 -37.16599999999999Q427.288 -37.16599999999999 430.258 -43.19599999999999H443.848Q441.688 -35.99599999999999 435.568 -31.36099999999999Q429.448 -26.725999999999992 420.538 -26.725999999999992Q413.338 -26.725999999999992 407.62300000000005 -29.920999999999992Q401.908 -33.11599999999999 398.713 -38.965999999999994Q395.51800000000003 -44.81599999999999 395.51800000000003 -52.465999999999994Q395.51800000000003 -60.20599999999999 398.668 -66.05599999999998Q401.818 -71.90599999999999 407.488 -75.05599999999998Q413.158 -78.20599999999999 420.538 -78.20599999999999Q427.648 -78.20599999999999 433.273 -75.14599999999999Q438.898 -72.08599999999998 442.00300000000004 -66.46099999999998Q445.108 -60.835999999999984 445.108 -53.54599999999999Q445.108 -50.84599999999999 444.748 -48.68599999999999ZM432.058 -57.14599999999999Q431.968 -62.005999999999986 428.548 -64.93099999999998Q425.128 -67.856 420.178 -67.856Q415.498 -67.856 412.303 -65.02099999999999Q409.108 -62.18599999999999 408.388 -57.14599999999999ZM476.008 -78.20599999999999Q485.27799999999996 -78.20599999999999 491.35299999999995 -73.571Q497.428 -68.93599999999999 499.498 -60.56599999999999H485.908Q484.828 -63.80599999999998 482.263 -65.65099999999998Q479.698 -67.496 475.918 -67.496Q470.518 -67.496 467.36799999999994 -63.58099999999999Q464.21799999999996 -59.66599999999998 464.21799999999996 -52.465999999999994Q464.21799999999996 -45.355999999999995 467.36799999999994 -41.44099999999999Q470.518 -37.52599999999999 475.918 -37.52599999999999Q483.568 -37.52599999999999 485.908 -44.365999999999985H499.498Q497.428 -36.26599999999999 491.308 -31.49599999999999Q485.188 -26.725999999999992 476.008 -26.725999999999992Q468.808 -26.725999999999992 463.22799999999995 -29.920999999999992Q457.64799999999997 -33.11599999999999 454.498 -38.92099999999999Q451.348 -44.725999999999985 451.348 -52.465999999999994Q451.348 -60.20599999999999 454.498 -66.011Q457.64799999999997 -71.81599999999999 463.22799999999995 -75.011Q468.808 -78.20599999999999 476.008 -78.20599999999999ZM505.918 -52.465999999999994Q505.918 -60.115999999999985 509.293 -65.96599999999998Q512.668 -71.81599999999999 518.518 -75.011Q524.368 -78.20599999999999 531.568 -78.20599999999999Q538.768 -78.20599999999999 544.6179999999999 -75.011Q550.468 -71.81599999999999 553.843 -65.96599999999998Q557.218 -60.115999999999985 557.218 -52.465999999999994Q557.218 -44.81599999999999 553.7529999999999 -38.965999999999994Q550.288 -33.11599999999999 544.393 -29.920999999999992Q538.498 -26.725999999999992 531.208 -26.725999999999992Q524.008 -26.725999999999992 518.248 -29.920999999999992Q512.488 -33.11599999999999 509.20300000000003 -38.965999999999994Q505.918 -44.81599999999999 505.918 -52.465999999999994ZM544.258 -52.465999999999994Q544.258 -59.57599999999999 540.523 -63.40099999999999Q536.788 -67.22599999999998 531.388 -67.22599999999998Q525.988 -67.22599999999998 522.3430000000001 -63.40099999999999Q518.698 -59.57599999999999 518.698 -52.465999999999994Q518.698 -45.355999999999995 522.2529999999999 -41.53099999999999Q525.808 -37.70599999999999 531.208 -37.70599999999999Q534.628 -37.70599999999999 537.643 -39.37099999999999Q540.658 -41.03599999999999 542.4580000000001 -44.365999999999985Q544.258 -47.69599999999999 544.258 -52.465999999999994ZM649.1379999999999 -56.78599999999999V-27.53599999999999H636.538V-55.07599999999999Q636.538 -60.92599999999999 633.568 -64.03099999999999Q630.598 -67.136 625.468 -67.136Q620.338 -67.136 617.323 -64.03099999999999Q614.308 -60.92599999999999 614.308 -55.07599999999999V-27.53599999999999H601.708V-55.07599999999999Q601.708 -60.92599999999999 598.738 -64.03099999999999Q595.768 -67.136 590.6379999999999 -67.136Q585.418 -67.136 582.403 -64.03099999999999Q579.3879999999999 -60.92599999999999 579.3879999999999 -55.07599999999999V-27.53599999999999H566.788V-77.39599999999999H579.3879999999999V-71.36599999999999Q581.818 -74.51599999999999 585.643 -76.31599999999999Q589.468 -78.11599999999999 594.058 -78.11599999999999Q599.908 -78.11599999999999 604.498 -75.64099999999999Q609.088 -73.16599999999998 611.608 -68.576Q614.038 -72.89599999999999 618.673 -75.50599999999999Q623.308 -78.11599999999999 628.708 -78.11599999999999Q637.8879999999999 -78.11599999999999 643.5129999999999 -72.49099999999999Q649.1379999999999 -66.86599999999999 649.1379999999999 -56.78599999999999ZM690.478 -78.20599999999999Q696.8679999999999 -78.20599999999999 702.0429999999999 -75.05599999999998Q707.218 -71.90599999999999 710.233 -66.101Q713.2479999999999 -60.29599999999999 713.2479999999999 -52.64599999999999Q713.2479999999999 -44.995999999999995 710.233 -39.10099999999999Q707.218 -33.20599999999999 702.0429999999999 -29.96599999999999Q696.8679999999999 -26.725999999999992 690.478 -26.725999999999992Q684.9879999999999 -26.725999999999992 680.8029999999999 -28.975999999999992Q676.6179999999999 -31.225999999999992 674.0079999999999 -34.64599999999999V-3.7759999999999927H661.408V-77.39599999999999H674.0079999999999V-70.19599999999998Q676.438 -73.61599999999999 680.713 -75.91099999999999Q684.9879999999999 -78.20599999999999 690.478 -78.20599999999999ZM687.148 -67.136Q683.728 -67.136 680.713 -65.381Q677.698 -63.62599999999999 675.853 -60.29599999999999Q674.0079999999999 -56.965999999999994 674.0079999999999 -52.465999999999994Q674.0079999999999 -47.965999999999994 675.853 -44.635999999999996Q677.698 -41.30599999999999 680.713 -39.55099999999999Q683.728 -37.79599999999999 687.148 -37.79599999999999Q690.658 -37.79599999999999 693.673 -39.59599999999999Q696.688 -41.39599999999999 698.5329999999999 -44.725999999999985Q700.3779999999999 -48.05599999999999 700.3779999999999 -52.64599999999999Q700.3779999999999 -57.14599999999999 698.5329999999999 -60.43099999999999Q696.688 -63.715999999999994 693.673 -65.42599999999999Q690.658 -67.136 687.148 -67.136ZM763.9780000000001 -78.20599999999999Q769.5580000000001 -78.20599999999999 773.7430000000002 -75.95599999999999Q777.9280000000001 -73.70599999999999 780.4480000000001 -70.28599999999999V-77.39599999999999H793.138V-27.53599999999999H780.4480000000001V-34.82599999999999Q778.018 -31.315999999999992 773.743 -29.020999999999994Q769.4680000000001 -26.725999999999992 763.888 -26.725999999999992Q757.5880000000001 -26.725999999999992 752.413 -29.96599999999999Q747.238 -33.20599999999999 744.2230000000001 -39.10099999999999Q741.2080000000001 -44.995999999999995 741.2080000000001 -52.64599999999999Q741.2080000000001 -60.20599999999999 744.2230000000001 -66.05599999999998Q747.238 -71.90599999999999 752.413 -75.05599999999998Q757.5880000000001 -78.20599999999999 763.9780000000001 -78.20599999999999ZM767.2180000000001 -67.136Q763.7080000000001 -67.136 760.738 -65.42599999999999Q757.768 -63.715999999999994 755.923 -60.43099999999999Q754.0780000000001 -57.14599999999999 754.0780000000001 -52.64599999999999Q754.0780000000001 -48.14599999999999 755.923 -44.77099999999999Q757.768 -41.39599999999999 760.783 -39.59599999999999Q763.798 -37.79599999999999 767.2180000000001 -37.79599999999999Q770.7280000000001 -37.79599999999999 773.788 -39.55099999999999Q776.8480000000001 -41.30599999999999 778.6480000000001 -44.590999999999994Q780.4480000000001 -47.87599999999999 780.4480000000001 -52.465999999999994Q780.4480000000001 -57.05599999999999 778.6480000000001 -60.340999999999994Q776.8480000000001 -63.62599999999999 773.788 -65.381Q770.7280000000001 -67.136 767.2180000000001 -67.136ZM827.188 -78.20599999999999Q836.458 -78.20599999999999 842.5329999999999 -73.571Q848.608 -68.93599999999999 850.678 -60.56599999999999H837.088Q836.008 -63.80599999999998 833.443 -65.65099999999998Q830.878 -67.496 827.098 -67.496Q821.698 -67.496 818.548 -63.58099999999999Q815.398 -59.66599999999998 815.398 -52.465999999999994Q815.398 -45.355999999999995 818.548 -41.44099999999999Q821.698 -37.52599999999999 827.098 -37.52599999999999Q834.748 -37.52599999999999 837.088 -44.365999999999985H850.678Q848.608 -36.26599999999999 842.4879999999999 -31.49599999999999Q836.3679999999999 -26.725999999999992 827.188 -26.725999999999992Q819.9879999999999 -26.725999999999992 814.4079999999999 -29.920999999999992Q808.828 -33.11599999999999 805.678 -38.92099999999999Q802.528 -44.725999999999985 802.528 -52.465999999999994Q802.528 -60.20599999999999 805.678 -66.011Q808.828 -71.81599999999999 814.4079999999999 -75.011Q819.9879999999999 -78.20599999999999 827.188 -78.20599999999999ZM879.778 -78.20599999999999Q885.3580000000001 -78.20599999999999 889.5430000000001 -75.95599999999999Q893.7280000000001 -73.70599999999999 896.248 -70.28599999999999V-77.39599999999999H908.938V-27.53599999999999H896.248V-34.82599999999999Q893.818 -31.315999999999992 889.543 -29.020999999999994Q885.268 -26.725999999999992 879.688 -26.725999999999992Q873.388 -26.725999999999992 868.213 -29.96599999999999Q863.038 -33.20599999999999 860.023 -39.10099999999999Q857.008 -44.995999999999995 857.008 -52.64599999999999Q857.008 -60.20599999999999 860.023 -66.05599999999998Q863.038 -71.90599999999999 868.213 -75.05599999999998Q873.388 -78.20599999999999 879.778 -78.20599999999999ZM883.018 -67.136Q879.508 -67.136 876.538 -65.42599999999999Q873.568 -63.715999999999994 871.723 -60.43099999999999Q869.878 -57.14599999999999 869.878 -52.64599999999999Q869.878 -48.14599999999999 871.723 -44.77099999999999Q873.568 -41.39599999999999 876.583 -39.59599999999999Q879.598 -37.79599999999999 883.018 -37.79599999999999Q886.528 -37.79599999999999 889.588 -39.55099999999999Q892.648 -41.30599999999999 894.4480000000001 -44.590999999999994Q896.248 -47.87599999999999 896.248 -52.465999999999994Q896.248 -57.05599999999999 894.4480000000001 -60.340999999999994Q892.648 -63.62599999999999 889.588 -65.381Q886.528 -67.136 883.018 -67.136ZM941.188 -78.20599999999999Q946.048 -78.20599999999999 950.458 -76.09099999999998Q954.8679999999999 -73.97599999999998 957.478 -70.466V-94.13599999999998H970.2579999999999V-27.53599999999999H957.478V-34.91599999999999Q955.1379999999999 -31.225999999999992 950.9079999999999 -28.975999999999992Q946.678 -26.725999999999992 941.098 -26.725999999999992Q934.798 -26.725999999999992 929.578 -29.96599999999999Q924.358 -33.20599999999999 921.343 -39.10099999999999Q918.328 -44.995999999999995 918.328 -52.64599999999999Q918.328 -60.20599999999999 921.343 -66.05599999999998Q924.358 -71.90599999999999 929.578 -75.05599999999998Q934.798 -78.20599999999999 941.188 -78.20599999999999ZM944.338 -67.136Q940.828 -67.136 937.858 -65.42599999999999Q934.8879999999999 -63.715999999999994 933.0429999999999 -60.43099999999999Q931.198 -57.14599999999999 931.198 -52.64599999999999Q931.198 -48.14599999999999 933.0429999999999 -44.77099999999999Q934.8879999999999 -41.39599999999999 937.9029999999999 -39.59599999999999Q940.9179999999999 -37.79599999999999 944.338 -37.79599999999999Q947.848 -37.79599999999999 950.9079999999999 -39.55099999999999Q953.968 -41.30599999999999 955.768 -44.590999999999994Q957.568 -47.87599999999999 957.568 -52.465999999999994Q957.568 -57.05599999999999 955.768 -60.340999999999994Q953.968 -63.62599999999999 950.9079999999999 -65.381Q947.848 -67.136 944.338 -67.136ZM1028.878 -48.68599999999999H992.4279999999999Q992.8779999999999 -43.28599999999999 996.2079999999999 -40.225999999999985Q999.5379999999999 -37.16599999999999 1004.3979999999999 -37.16599999999999Q1011.4179999999999 -37.16599999999999 1014.3879999999999 -43.19599999999999H1027.9779999999998Q1025.818 -35.99599999999999 1019.6979999999999 -31.36099999999999Q1013.5779999999999 -26.725999999999992 1004.6679999999999 -26.725999999999992Q997.4679999999998 -26.725999999999992 991.7529999999999 -29.920999999999992Q986.0379999999999 -33.11599999999999 982.8429999999998 -38.965999999999994Q979.6479999999999 -44.81599999999999 979.6479999999999 -52.465999999999994Q979.6479999999999 -60.20599999999999 982.7979999999999 -66.05599999999998Q985.9479999999999 -71.90599999999999 991.6179999999999 -75.05599999999998Q997.2879999999999 -78.20599999999999 1004.6679999999999 -78.20599999999999Q1011.7779999999999 -78.20599999999999 1017.4029999999999 -75.14599999999999Q1023.0279999999999 -72.08599999999998 1026.1329999999998 -66.46099999999998Q1029.2379999999998 -60.835999999999984 1029.2379999999998 -53.54599999999999Q1029.2379999999998 -50.84599999999999 1028.878 -48.68599999999999ZM1016.1879999999999 -57.14599999999999Q1016.0979999999998 -62.005999999999986 1012.6779999999999 -64.93099999999998Q1009.2579999999999 -67.856 1004.3079999999999 -67.856Q999.6279999999999 -67.856 996.4329999999999 -65.02099999999999Q993.2379999999998 -62.18599999999999 992.5179999999999 -57.14599999999999ZM1121.0679999999998 -56.78599999999999V-27.53599999999999H1108.4679999999998V-55.07599999999999Q1108.4679999999998 -60.92599999999999 1105.4979999999998 -64.03099999999999Q1102.5279999999998 -67.136 1097.398 -67.136Q1092.2679999999998 -67.136 1089.2529999999997 -64.03099999999999Q1086.2379999999998 -60.92599999999999 1086.2379999999998 -55.07599999999999V-27.53599999999999H1073.638V-55.07599999999999Q1073.638 -60.92599999999999 1070.668 -64.03099999999999Q1067.6979999999999 -67.136 1062.5679999999998 -67.136Q1057.3479999999997 -67.136 1054.3329999999996 -64.03099999999999Q1051.3179999999998 -60.92599999999999 1051.3179999999998 -55.07599999999999V-27.53599999999999H1038.7179999999998V-77.39599999999999H1051.3179999999998V-71.36599999999999Q1053.7479999999998 -74.51599999999999 1057.5729999999999 -76.31599999999999Q1061.398 -78.11599999999999 1065.9879999999998 -78.11599999999999Q1071.8379999999997 -78.11599999999999 1076.4279999999999 -75.64099999999999Q1081.0179999999998 -73.16599999999998 1083.5379999999998 -68.576Q1085.9679999999998 -72.89599999999999 1090.6029999999998 -75.50599999999999Q1095.2379999999998 -78.11599999999999 1100.638 -78.11599999999999Q1109.8179999999998 -78.11599999999999 1115.4429999999998 -72.49099999999999Q1121.0679999999998 -66.86599999999999 1121.0679999999998 -56.78599999999999ZM1181.0379999999998 -77.39599999999999 1150.1679999999997 -3.9559999999999924H1136.7579999999998L1147.5579999999998 -28.795999999999992L1127.5779999999997 -77.39599999999999H1141.7079999999996L1154.5779999999997 -42.56599999999999L1167.6279999999997 -77.39599999999999Z" fill="#FFFFFF"/></svg><path transform="translate(298.1,418.0)" d="M4.914 -2.392H11.024V0.0H1.95V-18.07H4.914ZM21.958 -15.677999999999999V-10.373999999999999H28.197999999999997V-7.9559999999999995H21.958V-2.4179999999999997H28.977999999999994V0.0H18.993999999999996V-18.096H28.977999999999994V-15.677999999999999ZM49.01199999999999 -3.6919999999999997H41.44599999999999L40.145999999999994 0.0H37.05199999999999L43.52599999999999 -18.096H46.95799999999999L53.43199999999999 0.0H50.31199999999999ZM48.17999999999999 -6.109999999999999 45.24199999999999 -14.508 42.27799999999999 -6.109999999999999ZM71.12599999999999 0.0 66.966 -7.228H64.704V0.0H61.739999999999995V-18.07H67.97999999999999Q70.05999999999999 -18.07 71.50299999999999 -17.342Q72.946 -16.614 73.661 -15.392Q74.37599999999999 -14.17 74.37599999999999 -12.661999999999999Q74.37599999999999 -10.894 73.34899999999999 -9.451Q72.32199999999999 -8.008 70.19 -7.4879999999999995L74.66199999999999 0.0ZM64.704 -9.594H67.97999999999999Q69.64399999999999 -9.594 70.48899999999999 -10.425999999999998Q71.33399999999999 -11.258 71.33399999999999 -12.661999999999999Q71.33399999999999 -14.065999999999999 70.50199999999998 -14.858999999999998Q69.66999999999999 -15.652 67.97999999999999 -15.652H64.704ZM98.518 0.0H95.55399999999999L86.636 -13.494V0.0H83.672V-18.096H86.636L95.55399999999999 -4.628V-18.096H98.518ZM107.216 -1.716Q107.216 -2.522 107.762 -3.0679999999999996Q108.30799999999999 -3.614 109.11399999999999 -3.614Q109.89399999999999 -3.614 110.44 -3.0679999999999996Q110.98599999999999 -2.522 110.98599999999999 -1.716Q110.98599999999999 -0.9099999999999999 110.44 -0.364Q109.89399999999999 0.182 109.11399999999999 0.182Q108.30799999999999 0.182 107.762 -0.364Q107.216 -0.9099999999999999 107.216 -1.716ZM159.7 -8.969999999999999Q159.7 -6.2139999999999995 158.517 -4.186Q157.334 -2.158 155.163 -1.079Q152.992 0.0 150.106 0.0H144.20399999999998V-18.07H150.106Q152.992 -18.07 155.163 -16.965Q157.334 -15.86 158.517 -13.793Q159.7 -11.725999999999999 159.7 -8.969999999999999ZM156.658 -8.969999999999999Q156.658 -12.116 154.968 -13.884Q153.278 -15.652 150.106 -15.652H147.16799999999998V-2.4179999999999997H150.106Q153.278 -2.4179999999999997 154.968 -4.1339999999999995Q156.658 -5.85 156.658 -8.969999999999999ZM171.10199999999998 -15.677999999999999V-10.373999999999999H177.34199999999998V-7.9559999999999995H171.10199999999998V-2.4179999999999997H178.12199999999999V0.0H168.13799999999998V-18.096H178.12199999999999V-15.677999999999999ZM195.504 -18.304Q198.39 -18.304 200.63899999999998 -16.887Q202.88799999999998 -15.469999999999999 203.902 -12.87H200.33999999999997Q199.63799999999998 -14.299999999999999 198.39 -15.001999999999999Q197.142 -15.703999999999999 195.504 -15.703999999999999Q193.70999999999998 -15.703999999999999 192.30599999999998 -14.898Q190.902 -14.091999999999999 190.10899999999998 -12.584Q189.31599999999997 -11.075999999999999 189.31599999999997 -9.074Q189.31599999999997 -7.072 190.10899999999998 -5.564Q190.902 -4.056 192.30599999999998 -3.237Q193.70999999999998 -2.4179999999999997 195.504 -2.4179999999999997Q197.142 -2.4179999999999997 198.39 -3.1199999999999997Q199.63799999999998 -3.8219999999999996 200.33999999999997 -5.252H203.902Q202.88799999999998 -2.6519999999999997 200.63899999999998 -1.2479999999999998Q198.39 0.156 195.504 0.156Q192.956 0.156 190.84999999999997 -1.027Q188.74399999999997 -2.21 187.50899999999996 -4.316Q186.27399999999997 -6.422 186.27399999999997 -9.074Q186.27399999999997 -11.725999999999999 187.50899999999996 -13.831999999999999Q188.74399999999997 -15.937999999999999 190.86299999999997 -17.121Q192.98199999999997 -18.304 195.504 -18.304ZM211.87199999999996 -9.074Q211.87199999999996 -11.725999999999999 213.10699999999997 -13.831999999999999Q214.34199999999996 -15.937999999999999 216.46099999999996 -17.121Q218.57999999999996 -18.304 221.10199999999998 -18.304Q223.64999999999998 -18.304 225.76899999999998 -17.121Q227.88799999999998 -15.937999999999999 229.10999999999996 -13.831999999999999Q230.33199999999997 -11.725999999999999 230.33199999999997 -9.074Q230.33199999999997 -6.422 229.10999999999996 -4.303Q227.88799999999998 -2.1839999999999997 225.76899999999998 -1.001Q223.64999999999998 0.182 221.10199999999998 0.182Q218.57999999999996 0.182 216.46099999999996 -1.001Q214.34199999999996 -2.1839999999999997 213.10699999999997 -4.303Q211.87199999999996 -6.422 211.87199999999996 -9.074ZM227.28999999999996 -9.074Q227.28999999999996 -11.075999999999999 226.49699999999996 -12.584Q225.70399999999998 -14.091999999999999 224.29999999999995 -14.898Q222.89599999999996 -15.703999999999999 221.10199999999998 -15.703999999999999Q219.30799999999996 -15.703999999999999 217.90399999999997 -14.898Q216.49999999999997 -14.091999999999999 215.70699999999997 -12.584Q214.91399999999996 -11.075999999999999 214.91399999999996 -9.074Q214.91399999999996 -7.072 215.70699999999997 -5.551Q216.49999999999997 -4.03 217.90399999999997 -3.2110000000000003Q219.30799999999996 -2.392 221.10199999999998 -2.392Q222.89599999999996 -2.392 224.29999999999995 -3.2110000000000003Q225.70399999999998 -4.03 226.49699999999996 -5.551Q227.28999999999996 -7.072 227.28999999999996 -9.074ZM257.77599999999995 -18.07V0.0H254.81199999999998V-12.376L249.29999999999998 0.0H247.24599999999998L241.70799999999997 -12.376V0.0H238.74399999999997V-18.07H241.94199999999998L248.28599999999997 -3.9L254.60399999999998 -18.07ZM273.416 -7.332H270.14V0.0H267.176V-18.07H273.416Q275.496 -18.07 276.93899999999996 -17.355Q278.382 -16.64 279.097 -15.418Q279.812 -14.196 279.812 -12.687999999999999Q279.812 -11.309999999999999 279.16200000000003 -10.088Q278.512 -8.866 277.082 -8.099Q275.652 -7.332 273.416 -7.332ZM276.77 -12.687999999999999Q276.77 -15.652 273.416 -15.652H270.14V-9.75H273.416Q275.106 -9.75 275.938 -10.517Q276.77 -11.283999999999999 276.77 -12.687999999999999ZM291.11 -18.07V0.0H288.146V-18.07ZM303.474 -2.392H309.584V0.0H300.51V-18.07H303.474ZM320.518 -15.677999999999999V-10.373999999999999H326.758V-7.9559999999999995H320.518V-2.4179999999999997H327.538V0.0H317.554V-18.096H327.538V-15.677999999999999ZM335.976 -1.716Q335.976 -2.522 336.522 -3.0679999999999996Q337.068 -3.614 337.874 -3.614Q338.654 -3.614 339.2 -3.0679999999999996Q339.746 -2.522 339.746 -1.716Q339.746 -0.9099999999999999 339.2 -0.364Q338.654 0.182 337.874 0.182Q337.068 0.182 336.522 -0.364Q335.976 -0.9099999999999999 335.976 -1.716ZM375.902 -18.07V-6.552Q375.902 -4.498 376.981 -3.458Q378.06 -2.4179999999999997 379.98400000000004 -2.4179999999999997Q381.934 -2.4179999999999997 383.01300000000003 -3.458Q384.092 -4.498 384.092 -6.552V-18.07H387.056V-6.604Q387.056 -4.394 386.094 -2.86Q385.132 -1.3259999999999998 383.52 -0.572Q381.908 0.182 379.958 0.182Q378.00800000000004 0.182 376.409 -0.572Q374.81 -1.3259999999999998 373.874 -2.86Q372.938 -4.394 372.938 -6.604V-18.07ZM411.25 0.0H408.286L399.368 -13.494V0.0H396.404V-18.096H399.368L408.286 -4.628V-18.096H411.25ZM436.14599999999996 -8.969999999999999Q436.14599999999996 -6.2139999999999995 434.96299999999997 -4.186Q433.78 -2.158 431.609 -1.079Q429.438 0.0 426.55199999999996 0.0H420.65V-18.07H426.55199999999996Q429.438 -18.07 431.609 -16.965Q433.78 -15.86 434.96299999999997 -13.793Q436.14599999999996 -11.725999999999999 436.14599999999996 -8.969999999999999ZM433.104 -8.969999999999999Q433.104 -12.116 431.414 -13.884Q429.724 -15.652 426.55199999999996 -15.652H423.614V-2.4179999999999997H426.55199999999996Q429.724 -2.4179999999999997 431.414 -4.1339999999999995Q433.104 -5.85 433.104 -8.969999999999999ZM447.548 -15.677999999999999V-10.373999999999999H453.788V-7.9559999999999995H447.548V-2.4179999999999997H454.56800000000004V0.0H444.584V-18.096H454.56800000000004V-15.677999999999999ZM473.09400000000005 0.0 468.934 -7.228H466.672V0.0H463.708V-18.07H469.94800000000004Q472.028 -18.07 473.471 -17.342Q474.91400000000004 -16.614 475.629 -15.392Q476.34400000000005 -14.17 476.34400000000005 -12.661999999999999Q476.34400000000005 -10.894 475.317 -9.451Q474.29 -8.008 472.158 -7.4879999999999995L476.63000000000005 0.0ZM466.672 -9.594H469.94800000000004Q471.612 -9.594 472.457 -10.425999999999998Q473.302 -11.258 473.302 -12.661999999999999Q473.302 -14.065999999999999 472.47 -14.858999999999998Q471.63800000000003 -15.652 469.94800000000004 -15.652H466.672ZM485.19800000000004 -4.992H488.37000000000006Q488.47400000000005 -3.8219999999999996 489.29300000000006 -3.0679999999999996Q490.1120000000001 -2.314 491.59400000000005 -2.314Q493.12800000000004 -2.314 493.98600000000005 -3.0549999999999997Q494.84400000000005 -3.796 494.84400000000005 -4.966Q494.84400000000005 -5.8759999999999994 494.31100000000004 -6.4479999999999995Q493.7780000000001 -7.02 492.98500000000007 -7.331999999999999Q492.19200000000006 -7.643999999999999 490.78800000000007 -8.008Q489.02000000000004 -8.475999999999999 487.9150000000001 -8.956999999999999Q486.81000000000006 -9.437999999999999 486.0300000000001 -10.451999999999998Q485.25000000000006 -11.466 485.25000000000006 -13.155999999999999Q485.25000000000006 -14.716 486.0300000000001 -15.886Q486.81000000000006 -17.056 488.21400000000006 -17.68Q489.61800000000005 -18.304 491.46400000000006 -18.304Q494.09000000000003 -18.304 495.76700000000005 -16.991Q497.4440000000001 -15.677999999999999 497.62600000000003 -13.389999999999999H494.3500000000001Q494.27200000000005 -14.378 493.41400000000004 -15.08Q492.55600000000004 -15.782 491.15200000000004 -15.782Q489.87800000000004 -15.782 489.07200000000006 -15.132Q488.2660000000001 -14.482 488.2660000000001 -13.26Q488.2660000000001 -12.427999999999999 488.773 -11.895Q489.28000000000003 -11.362 490.06000000000006 -11.05Q490.84000000000003 -10.738 492.19200000000006 -10.373999999999999Q493.98600000000005 -9.879999999999999 495.1170000000001 -9.386Q496.24800000000005 -8.892 497.04100000000005 -7.865Q497.83400000000006 -6.838 497.83400000000006 -5.122Q497.83400000000006 -3.7439999999999998 497.0930000000001 -2.522Q496.35200000000003 -1.3 494.93500000000006 -0.559Q493.51800000000003 0.182 491.59400000000005 0.182Q489.77400000000006 0.182 488.3180000000001 -0.45499999999999996Q486.8620000000001 -1.0919999999999999 486.0300000000001 -2.262Q485.19800000000004 -3.432 485.19800000000004 -4.992ZM518.518 -18.07V-15.652H513.7080000000001V0.0H510.7440000000001V-15.652H505.9080000000001V-18.07ZM537.9020000000002 -3.6919999999999997H530.3360000000001L529.0360000000001 0.0H525.9420000000001L532.416 -18.096H535.8480000000001L542.3220000000001 0.0H539.2020000000001ZM537.07 -6.109999999999999 534.1320000000001 -14.508 531.1680000000001 -6.109999999999999ZM565.4760000000001 0.0H562.5120000000001L553.594 -13.494V0.0H550.6300000000001V-18.096H553.594L562.5120000000001 -4.628V-18.096H565.4760000000001ZM590.3720000000001 -8.969999999999999Q590.3720000000001 -6.2139999999999995 589.1890000000001 -4.186Q588.0060000000001 -2.158 585.835 -1.079Q583.664 0.0 580.778 0.0H574.8760000000001V-18.07H580.778Q583.664 -18.07 585.835 -16.965Q588.0060000000001 -15.86 589.1890000000001 -13.793Q590.3720000000001 -11.725999999999999 590.3720000000001 -8.969999999999999ZM587.33 -8.969999999999999Q587.33 -12.116 585.6400000000001 -13.884Q583.95 -15.652 580.778 -15.652H577.84V-2.4179999999999997H580.778Q583.95 -2.4179999999999997 585.6400000000001 -4.1339999999999995Q587.33 -5.85 587.33 -8.969999999999999ZM598.1080000000001 -1.716Q598.1080000000001 -2.522 598.654 -3.0679999999999996Q599.2 -3.614 600.006 -3.614Q600.7860000000001 -3.614 601.3320000000001 -3.0679999999999996Q601.878 -2.522 601.878 -1.716Q601.878 -0.9099999999999999 601.3320000000001 -0.364Q600.7860000000001 0.182 600.006 0.182Q599.2 0.182 598.654 -0.364Q598.1080000000001 -0.9099999999999999 598.1080000000001 -1.716Z" fill="#A78BFA" opacity="0.92"/></svg>