<svg xmlns="http://www.w3.org/2000/svg" width="956.40" height="112.40" viewBox="-2.70 -80.00 956.40 112.40"><path d="M28.700000000000003 -56.300000000000004Q34.1 -56.300000000000004 39.0 -53.95Q43.900000000000006 -51.6 46.800000000000004 -47.7V-74.0H61.0V0.0H46.800000000000004V-8.200000000000001Q44.2 -4.1000000000000005 39.5 -1.6000000000000003Q34.800000000000004 0.9 28.6 0.9Q21.6 0.9 15.8 -2.7Q10.0 -6.300000000000001 6.65 -12.850000000000001Q3.3000000000000003 -19.400000000000002 3.3000000000000003 -27.900000000000002Q3.3000000000000003 -36.300000000000004 6.65 -42.800000000000004Q10.0 -49.300000000000004 15.8 -52.800000000000004Q21.6 -56.300000000000004 28.700000000000003 -56.300000000000004ZM32.2 -44.0Q28.3 -44.0 25.0 -42.1Q21.700000000000003 -40.2 19.650000000000002 -36.55Q17.6 -32.9 17.6 -27.900000000000002Q17.6 -22.900000000000002 19.650000000000002 -19.150000000000002Q21.700000000000003 -15.4 25.050000000000004 -13.4Q28.400000000000002 -11.4 32.2 -11.4Q36.1 -11.4 39.5 -13.350000000000001Q42.900000000000006 -15.3 44.900000000000006 -18.950000000000003Q46.900000000000006 -22.6 46.900000000000006 -27.700000000000003Q46.900000000000006 -32.800000000000004 44.900000000000006 -36.45Q42.900000000000006 -40.1 39.5 -42.05Q36.1 -44.0 32.2 -44.0ZM126.39999999999999 -23.5H85.89999999999999Q86.39999999999999 -17.5 90.1 -14.100000000000001Q93.8 -10.700000000000001 99.19999999999999 -10.700000000000001Q107.0 -10.700000000000001 110.3 -17.400000000000002H125.39999999999999Q123.0 -9.4 116.19999999999999 -4.25Q109.39999999999999 0.9 99.5 0.9Q91.5 0.9 85.15 -2.65Q78.8 -6.2 75.25 -12.700000000000001Q71.69999999999999 -19.200000000000003 71.69999999999999 -27.700000000000003Q71.69999999999999 -36.300000000000004 75.19999999999999 -42.800000000000004Q78.69999999999999 -49.300000000000004 85.0 -52.800000000000004Q91.3 -56.300000000000004 99.5 -56.300000000000004Q107.39999999999999 -56.300000000000004 113.64999999999999 -52.900000000000006Q119.89999999999999 -49.5 123.35 -43.25Q126.8 -37.0 126.8 -28.900000000000002Q126.8 -25.900000000000002 126.39999999999999 -23.5ZM112.3 -32.9Q112.19999999999999 -38.300000000000004 108.39999999999999 -41.550000000000004Q104.6 -44.800000000000004 99.1 -44.800000000000004Q93.89999999999999 -44.800000000000004 90.35 -41.650000000000006Q86.8 -38.5 86.0 -32.9ZM161.39999999999998 -56.300000000000004Q171.7 -56.300000000000004 178.45 -51.150000000000006Q185.2 -46.0 187.5 -36.7H172.39999999999998Q171.2 -40.300000000000004 168.35 -42.35000000000001Q165.5 -44.400000000000006 161.29999999999998 -44.400000000000006Q155.29999999999998 -44.400000000000006 151.79999999999998 -40.050000000000004Q148.29999999999998 -35.7 148.29999999999998 -27.700000000000003Q148.29999999999998 -19.8 151.79999999999998 -15.450000000000001Q155.29999999999998 -11.100000000000001 161.29999999999998 -11.100000000000001Q169.79999999999998 -11.100000000000001 172.39999999999998 -18.7H187.5Q185.2 -9.700000000000001 178.39999999999998 -4.4Q171.6 0.9 161.39999999999998 0.9Q153.39999999999998 0.9 147.2 -2.65Q141.0 -6.2 137.5 -12.65Q134.0 -19.1 134.0 -27.700000000000003Q134.0 -36.300000000000004 137.5 -42.75Q141.0 -49.2 147.2 -52.75Q153.39999999999998 -56.300000000000004 161.39999999999998 -56.300000000000004ZM194.9 -27.700000000000003Q194.9 -36.2 198.65 -42.7Q202.4 -49.2 208.9 -52.75Q215.4 -56.300000000000004 223.4 -56.300000000000004Q231.4 -56.300000000000004 237.9 -52.75Q244.4 -49.2 248.15 -42.7Q251.9 -36.2 251.9 -27.700000000000003Q251.9 -19.200000000000003 248.05 -12.700000000000001Q244.2 -6.2 237.64999999999998 -2.65Q231.1 0.9 223.0 0.9Q215.0 0.9 208.6 -2.65Q202.2 -6.2 198.55 -12.700000000000001Q194.9 -19.200000000000003 194.9 -27.700000000000003ZM237.5 -27.700000000000003Q237.5 -35.6 233.35 -39.85Q229.2 -44.1 223.2 -44.1Q217.2 -44.1 213.14999999999998 -39.85Q209.1 -35.6 209.1 -27.700000000000003Q209.1 -19.8 213.05 -15.55Q217.0 -11.3 223.0 -11.3Q226.8 -11.3 230.15 -13.15Q233.5 -15.0 235.5 -18.700000000000003Q237.5 -22.400000000000002 237.5 -27.700000000000003ZM354.3 -32.5V0.0H340.3V-30.6Q340.3 -37.1 337.0 -40.55Q333.70000000000005 -44.0 328.0 -44.0Q322.3 -44.0 318.95000000000005 -40.55Q315.6 -37.1 315.6 -30.6V0.0H301.6V-30.6Q301.6 -37.1 298.3 -40.55Q295.0 -44.0 289.3 -44.0Q283.5 -44.0 280.15 -40.55Q276.8 -37.1 276.8 -30.6V0.0H262.8V-55.400000000000006H276.8V-48.7Q279.5 -52.2 283.75 -54.2Q288.0 -56.2 293.1 -56.2Q299.6 -56.2 304.70000000000005 -53.45Q309.8 -50.7 312.6 -45.6Q315.3 -50.400000000000006 320.45000000000005 -53.300000000000004Q325.6 -56.2 331.6 -56.2Q341.8 -56.2 348.05 -49.95Q354.3 -43.7 354.3 -32.5ZM400.5 -56.300000000000004Q407.6 -56.300000000000004 413.35 -52.800000000000004Q419.1 -49.300000000000004 422.45000000000005 -42.85Q425.8 -36.4 425.8 -27.900000000000002Q425.8 -19.400000000000002 422.45000000000005 -12.850000000000001Q419.1 -6.300000000000001 413.35 -2.7Q407.6 0.9 400.5 0.9Q394.40000000000003 0.9 389.75 -1.6000000000000003Q385.1 -4.1000000000000005 382.2 -7.9V26.400000000000002H368.2V-55.400000000000006H382.2V-47.400000000000006Q384.90000000000003 -51.2 389.65000000000003 -53.75Q394.40000000000003 -56.300000000000004 400.5 -56.300000000000004ZM396.8 -44.0Q393.0 -44.0 389.65 -42.05Q386.3 -40.1 384.25 -36.400000000000006Q382.2 -32.7 382.2 -27.700000000000003Q382.2 -22.700000000000003 384.25 -19.0Q386.3 -15.3 389.65 -13.350000000000001Q393.0 -11.4 396.8 -11.4Q400.70000000000005 -11.4 404.05000000000007 -13.4Q407.40000000000003 -15.4 409.45000000000005 -19.1Q411.5 -22.8 411.5 -27.900000000000002Q411.5 -32.9 409.45000000000005 -36.55Q407.40000000000003 -40.2 404.05000000000007 -42.1Q400.70000000000005 -44.0 396.8 -44.0ZM482.7 -56.300000000000004Q488.9 -56.300000000000004 493.54999999999995 -53.800000000000004Q498.2 -51.300000000000004 501.0 -47.5V-55.400000000000006H515.0999999999999V0.0H501.0V-8.1Q498.29999999999995 -4.2 493.54999999999995 -1.6500000000000001Q488.79999999999995 0.9 482.59999999999997 0.9Q475.59999999999997 0.9 469.84999999999997 -2.7Q464.09999999999997 -6.300000000000001 460.75 -12.850000000000001Q457.4 -19.400000000000002 457.4 -27.900000000000002Q457.4 -36.300000000000004 460.75 -42.800000000000004Q464.09999999999997 -49.300000000000004 469.84999999999997 -52.800000000000004Q475.59999999999997 -56.300000000000004 482.7 -56.300000000000004ZM486.29999999999995 -44.0Q482.4 -44.0 479.09999999999997 -42.1Q475.79999999999995 -40.2 473.75 -36.55Q471.7 -32.9 471.7 -27.900000000000002Q471.7 -22.900000000000002 473.75 -19.150000000000002Q475.79999999999995 -15.4 479.15 -13.4Q482.49999999999994 -11.4 486.29999999999995 -11.4Q490.2 -11.4 493.6 -13.350000000000001Q497.0 -15.3 499.0 -18.950000000000003Q501.0 -22.6 501.0 -27.700000000000003Q501.0 -32.800000000000004 499.0 -36.45Q497.0 -40.1 493.6 -42.05Q490.2 -44.0 486.29999999999995 -44.0ZM553.2 -56.300000000000004Q563.5 -56.300000000000004 570.25 -51.150000000000006Q577.0 -46.0 579.3 -36.7H564.2Q563.0 -40.300000000000004 560.15 -42.35000000000001Q557.3 -44.400000000000006 553.1 -44.400000000000006Q547.1 -44.400000000000006 543.6 -40.050000000000004Q540.1 -35.7 540.1 -27.700000000000003Q540.1 -19.8 543.6 -15.450000000000001Q547.1 -11.100000000000001 553.1 -11.100000000000001Q561.6 -11.100000000000001 564.2 -18.7H579.3Q577.0 -9.700000000000001 570.2 -4.4Q563.4 0.9 553.2 0.9Q545.2 0.9 539.0 -2.65Q532.8 -6.2 529.3 -12.65Q525.8 -19.1 525.8 -27.700000000000003Q525.8 -36.300000000000004 529.3 -42.75Q532.8 -49.2 539.0 -52.75Q545.2 -56.300000000000004 553.2 -56.300000000000004ZM611.9 -56.300000000000004Q618.0999999999999 -56.300000000000004 622.75 -53.800000000000004Q627.4 -51.300000000000004 630.1999999999999 -47.5V-55.400000000000006H644.3V0.0H630.1999999999999V-8.1Q627.5 -4.2 622.75 -1.6500000000000001Q618.0 0.9 611.8 0.9Q604.8 0.9 599.05 -2.7Q593.3 -6.300000000000001 589.9499999999999 -12.850000000000001Q586.5999999999999 -19.400000000000002 586.5999999999999 -27.900000000000002Q586.5999999999999 -36.300000000000004 589.9499999999999 -42.800000000000004Q593.3 -49.300000000000004 599.05 -52.800000000000004Q604.8 -56.300000000000004 611.9 -56.300000000000004ZM615.5 -44.0Q611.5999999999999 -44.0 608.3 -42.1Q605.0 -40.2 602.95 -36.55Q600.9 -32.9 600.9 -27.900000000000002Q600.9 -22.900000000000002 602.95 -19.150000000000002Q605.0 -15.4 608.3499999999999 -13.4Q611.6999999999999 -11.4 615.5 -11.4Q619.4 -11.4 622.8 -13.350000000000001Q626.1999999999999 -15.3 628.1999999999999 -18.950000000000003Q630.1999999999999 -22.6 630.1999999999999 -27.700000000000003Q630.1999999999999 -32.800000000000004 628.1999999999999 -36.45Q626.1999999999999 -40.1 622.8 -42.05Q619.4 -44.0 615.5 -44.0ZM680.4 -56.300000000000004Q685.8 -56.300000000000004 690.6999999999999 -53.95Q695.5999999999999 -51.6 698.4999999999999 -47.7V-74.0H712.6999999999999V0.0H698.4999999999999V-8.200000000000001Q695.9 -4.1000000000000005 691.1999999999999 -1.6000000000000003Q686.4999999999999 0.9 680.3 0.9Q673.3 0.9 667.5 -2.7Q661.6999999999999 -6.300000000000001 658.3499999999999 -12.850000000000001Q654.9999999999999 -19.400000000000002 654.9999999999999 -27.900000000000002Q654.9999999999999 -36.300000000000004 658.3499999999999 -42.800000000000004Q661.6999999999999 -49.300000000000004 667.5 -52.800000000000004Q673.3 -56.300000000000004 680.4 -56.300000000000004ZM683.9 -44.0Q679.9999999999999 -44.0 676.6999999999999 -42.1Q673.4 -40.2 671.3499999999999 -36.55Q669.3 -32.9 669.3 -27.900000000000002Q669.3 -22.900000000000002 671.3499999999999 -19.150000000000002Q673.4 -15.4 676.75 -13.4Q680.0999999999999 -11.4 683.9 -11.4Q687.8 -11.4 691.1999999999999 -13.350000000000001Q694.5999999999999 -15.3 696.5999999999999 -18.950000000000003Q698.5999999999999 -22.6 698.5999999999999 -27.700000000000003Q698.5999999999999 -32.800000000000004 696.5999999999999 -36.45Q694.5999999999999 -40.1 691.1999999999999 -42.05Q687.8 -44.0 683.9 -44.0ZM778.0999999999999 -23.5H737.5999999999999Q738.0999999999999 -17.5 741.8 -14.100000000000001Q745.4999999999999 -10.700000000000001 750.8999999999999 -10.700000000000001Q758.6999999999999 -10.700000000000001 761.9999999999999 -17.400000000000002H777.0999999999999Q774.6999999999999 -9.4 767.8999999999999 -4.25Q761.0999999999999 0.9 751.1999999999999 0.9Q743.1999999999999 0.9 736.8499999999999 -2.65Q730.4999999999999 -6.2 726.9499999999998 -12.700000000000001Q723.3999999999999 -19.200000000000003 723.3999999999999 -27.700000000000003Q723.3999999999999 -36.300000000000004 726.8999999999999 -42.800000000000004Q730.3999999999999 -49.300000000000004 736.6999999999998 -52.800000000000004Q742.9999999999999 -56.300000000000004 751.1999999999999 -56.300000000000004Q759.0999999999999 -56.300000000000004 765.3499999999999 -52.900000000000006Q771.5999999999999 -49.5 775.05 -43.25Q778.4999999999999 -37.0 778.4999999999999 -28.900000000000002Q778.4999999999999 -25.900000000000002 778.0999999999999 -23.5ZM763.9999999999999 -32.9Q763.8999999999999 -38.300000000000004 760.0999999999999 -41.550000000000004Q756.3 -44.800000000000004 750.8 -44.800000000000004Q745.5999999999999 -44.800000000000004 742.05 -41.650000000000006Q738.4999999999999 -38.5 737.6999999999999 -32.9ZM880.7999999999998 -32.5V0.0H866.7999999999998V-30.6Q866.7999999999998 -37.1 863.4999999999998 -40.55Q860.1999999999998 -44.0 854.4999999999999 -44.0Q848.7999999999998 -44.0 845.4499999999998 -40.55Q842.0999999999999 -37.1 842.0999999999999 -30.6V0.0H828.0999999999999V-30.6Q828.0999999999999 -37.1 824.8 -40.55Q821.4999999999999 -44.0 815.7999999999998 -44.0Q809.9999999999999 -44.0 806.6499999999999 -40.55Q803.2999999999998 -37.1 803.2999999999998 -30.6V0.0H789.2999999999998V-55.400000000000006H803.2999999999998V-48.7Q805.9999999999999 -52.2 810.2499999999999 -54.2Q814.4999999999999 -56.2 819.5999999999999 -56.2Q826.0999999999999 -56.2 831.1999999999998 -53.45Q836.2999999999998 -50.7 839.0999999999999 -45.6Q841.7999999999998 -50.400000000000006 846.9499999999998 -53.300000000000004Q852.0999999999999 -56.2 858.0999999999999 -56.2Q868.2999999999998 -56.2 874.5499999999998 -49.95Q880.7999999999998 -43.7 880.7999999999998 -32.5ZM947.6999999999998 -55.400000000000006 913.3999999999999 26.200000000000003H898.4999999999999L910.4999999999999 -1.4000000000000001L888.2999999999998 -55.400000000000006H903.9999999999999L918.2999999999998 -16.7L932.7999999999998 -55.400000000000006Z" fill="#3A1E6E"/></svg>